<svg width="18" height="18" viewBox="0 0 18 18" fill="none" xmlns="http://www.w3.org/2000/svg">
<path d="M6.50009 0.666504C4.31676 0.666504 2.54176 2.4415 2.54176 4.62484C2.54176 6.7665 4.21676 8.49984 6.40009 8.57484C6.46676 8.5665 6.53342 8.5665 6.58342 8.57484C6.60009 8.57484 6.60842 8.57484 6.62509 8.57484C6.63342 8.57484 6.63342 8.57484 6.64176 8.57484C8.77509 8.49984 10.4501 6.7665 10.4584 4.62484C10.4584 2.4415 8.68342 0.666504 6.50009 0.666504Z" fill="white"/>
<path d="M10.7334 10.7915C8.40842 9.2415 4.61676 9.2415 2.27509 10.7915C1.21676 11.4998 0.633423 12.4582 0.633423 13.4832C0.633423 14.5082 1.21676 15.4582 2.26676 16.1582C3.43342 16.9415 4.96676 17.3332 6.50009 17.3332C8.03342 17.3332 9.56676 16.9415 10.7334 16.1582C11.7834 15.4498 12.3668 14.4998 12.3668 13.4665C12.3584 12.4415 11.7834 11.4915 10.7334 10.7915Z" fill="white"/>
<path d="M15.6584 5.1165C15.7918 6.73317 14.6418 8.14984 13.0501 8.3415C13.0418 8.3415 13.0418 8.3415 13.0334 8.3415H13.0084C12.9584 8.3415 12.9084 8.3415 12.8668 8.35817C12.0584 8.39984 11.3168 8.1415 10.7584 7.6665C11.6168 6.89984 12.1084 5.74984 12.0084 4.49984C11.9501 3.82484 11.7168 3.20817 11.3668 2.68317C11.6834 2.52484 12.0501 2.42484 12.4251 2.3915C14.0584 2.24984 15.5168 3.4665 15.6584 5.1165Z" fill="white"/>
<path d="M17.3251 12.8248C17.2584 13.6332 16.7418 14.3332 15.8751 14.8082C15.0418 15.2665 13.9918 15.4832 12.9501 15.4582C13.5501 14.9165 13.9001 14.2415 13.9668 13.5248C14.0501 12.4915 13.5584 11.4998 12.5751 10.7082C12.0168 10.2665 11.3668 9.9165 10.6584 9.65817C12.5001 9.12484 14.8168 9.48317 16.2418 10.6332C17.0084 11.2498 17.4001 12.0248 17.3251 12.8248Z" fill="white"/>
</svg>
