<svg width="22" height="22" viewBox="0 0 22 22" fill="none" xmlns="http://www.w3.org/2000/svg">
<path d="M8.15998 10.62C8.12998 10.62 8.10998 10.62 8.07998 10.62C8.02998 10.61 7.95998 10.61 7.89998 10.62C4.99998 10.53 2.80998 8.25 2.80998 5.44C2.80998 2.58 5.13998 0.25 7.99998 0.25C10.86 0.25 13.19 2.58 13.19 5.44C13.18 8.25 10.98 10.53 8.18998 10.62C8.17998 10.62 8.16998 10.62 8.15998 10.62ZM7.99998 1.75C5.96998 1.75 4.30998 3.41 4.30998 5.44C4.30998 7.44 5.86998 9.05 7.85998 9.12C7.91998 9.11 8.04998 9.11 8.17998 9.12C10.14 9.03 11.68 7.42 11.69 5.44C11.69 3.41 10.03 1.75 7.99998 1.75Z" fill="#292D32"/>
<path d="M15.54 10.75C15.51 10.75 15.48 10.75 15.45 10.74C15.04 10.78 14.62 10.49 14.58 10.08C14.54 9.67 14.79 9.3 15.2 9.25C15.32 9.24 15.45 9.24 15.56 9.24C17.02 9.16 18.16 7.96 18.16 6.49C18.16 4.97 16.93 3.74 15.41 3.74C15 3.75 14.66 3.41 14.66 3C14.66 2.59 15 2.25 15.41 2.25C17.75 2.25 19.66 4.16 19.66 6.5C19.66 8.8 17.86 10.66 15.57 10.75C15.56 10.75 15.55 10.75 15.54 10.75Z" fill="#292D32"/>
<path d="M8.16998 21.55C6.20998 21.55 4.23998 21.05 2.74998 20.05C1.35998 19.13 0.599976 17.87 0.599976 16.5C0.599976 15.13 1.35998 13.86 2.74998 12.93C5.74998 10.94 10.61 10.94 13.59 12.93C14.97 13.85 15.74 15.11 15.74 16.48C15.74 17.85 14.98 19.12 13.59 20.05C12.09 21.05 10.13 21.55 8.16998 21.55ZM3.57998 14.19C2.61998 14.83 2.09998 15.65 2.09998 16.51C2.09998 17.36 2.62998 18.18 3.57998 18.81C6.06998 20.48 10.27 20.48 12.76 18.81C13.72 18.17 14.24 17.35 14.24 16.49C14.24 15.64 13.71 14.82 12.76 14.19C10.27 12.53 6.06998 12.53 3.57998 14.19Z" fill="#292D32"/>
<path d="M17.34 19.75C16.99 19.75 16.68 19.51 16.61 19.15C16.53 18.74 16.79 18.35 17.19 18.26C17.82 18.13 18.4 17.88 18.85 17.53C19.42 17.1 19.73 16.56 19.73 15.99C19.73 15.42 19.42 14.88 18.86 14.46C18.42 14.12 17.87 13.88 17.22 13.73C16.82 13.64 16.56 13.24 16.65 12.83C16.74 12.43 17.14 12.17 17.55 12.26C18.41 12.45 19.16 12.79 19.77 13.26C20.7 13.96 21.23 14.95 21.23 15.99C21.23 17.03 20.69 18.02 19.76 18.73C19.14 19.21 18.36 19.56 17.5 19.73C17.44 19.75 17.39 19.75 17.34 19.75Z" fill="#292D32"/>
</svg>
