<svg xmlns="http://www.w3.org/2000/svg" width="16" height="18" viewBox="0 0 16 18" fill="none">
  <path d="M15.9167 8.08333V2.41666C15.9167 1.16666 15.3833 0.666664 14.0583 0.666664H10.6917C9.36666 0.666664 8.83333 1.16666 8.83333 2.41666V8.08333C8.83333 9.33333 9.36666 9.83333 10.6917 9.83333H14.0583C15.3833 9.83333 15.9167 9.33333 15.9167 8.08333Z" fill="white"/>
  <path d="M7.16667 9.91666V15.5833C7.16667 16.8333 6.63333 17.3333 5.30833 17.3333H1.94167C0.616665 17.3333 0.0833321 16.8333 0.0833321 15.5833V9.91666C0.0833321 8.66666 0.616665 8.16666 1.94167 8.16666H5.30833C6.63333 8.16666 7.16667 8.66666 7.16667 9.91666Z" fill="white"/>
  <path d="M15.9167 15.5833V13.25C15.9167 12 15.3833 11.5 14.0583 11.5H10.6917C9.36666 11.5 8.83333 12 8.83333 13.25V15.5833C8.83333 16.8333 9.36666 17.3333 10.6917 17.3333H14.0583C15.3833 17.3333 15.9167 16.8333 15.9167 15.5833Z" fill="white"/>
  <path d="M7.16667 4.75V2.41666C7.16667 1.16666 6.63333 0.666664 5.30833 0.666664H1.94167C0.616665 0.666664 0.0833321 1.16666 0.0833321 2.41666V4.75C0.0833321 6 0.616665 6.5 1.94167 6.5H5.30833C6.63333 6.5 7.16667 6 7.16667 4.75Z" fill="white"/>
</svg>
